<svg xmlns="http://www.w3.org/2000/svg" viewBox="0 0 1200 900" font-family="system-ui, -apple-system, sans-serif">
  <defs>
    <linearGradient id="pinkGrad" x1="0" y1="0" x2="1" y2="1">
      <stop offset="0%" stop-color="#ec4899"/>
      <stop offset="100%" stop-color="#8b5cf6"/>
    </linearGradient>
    <linearGradient id="blueGrad" x1="0" y1="0" x2="1" y2="1">
      <stop offset="0%" stop-color="#3b82f6"/>
      <stop offset="100%" stop-color="#6366f1"/>
    </linearGradient>
    <linearGradient id="greenGrad" x1="0" y1="0" x2="1" y2="1">
      <stop offset="0%" stop-color="#10b981"/>
      <stop offset="100%" stop-color="#059669"/>
    </linearGradient>
    <linearGradient id="amberGrad" x1="0" y1="0" x2="1" y2="1">
      <stop offset="0%" stop-color="#f59e0b"/>
      <stop offset="100%" stop-color="#d97706"/>
    </linearGradient>
  </defs>

  <!-- Background -->
  <rect width="1200" height="900" fill="#f8fafc" rx="12"/>

  <!-- Title -->
  <text x="600" y="38" text-anchor="middle" font-size="20" font-weight="700" fill="#1e293b">Qwen Agent Platform — Architecture</text>
  <text x="600" y="56" text-anchor="middle" font-size="11" fill="#94a3b8">MemoryAgent · Agent Society · Autopilot</text>

  <!-- Layer 1: MemoryAgent -->
  <rect x="30" y="72" width="340" height="220" rx="10" fill="white" stroke="#e2e8f0" stroke-width="1.5"/>
  <rect x="30" y="72" width="340" height="32" rx="10" fill="url(#blueGrad)"/>
  <rect x="30" y="94" width="340" height="10" fill="url(#blueGrad)"/>
  <text x="200" y="93" text-anchor="middle" font-size="13" font-weight="700" fill="white">🧠 MemoryAgent Layer</text>

  <rect x="48" y="118" width="140" height="36" rx="6" fill="#eff6ff" stroke="#93c5fd" stroke-width="1"/>
  <text x="118" y="141" text-anchor="middle" font-size="11" font-weight="600" fill="#3b82f6">Qwen Embeddings</text>

  <rect x="205" y="118" width="147" height="36" rx="6" fill="#eff6ff" stroke="#93c5fd" stroke-width="1"/>
  <text x="278" y="141" text-anchor="middle" font-size="11" font-weight="600" fill="#3b82f6">SQLite Store</text>

  <rect x="48" y="166" width="140" height="36" rx="6" fill="#ecfdf5" stroke="#6ee7b7" stroke-width="1"/>
  <text x="118" y="189" text-anchor="middle" font-size="11" font-weight="600" fill="#10b981">Cosine Similarity</text>

  <rect x="205" y="166" width="147" height="36" rx="6" fill="#fef3c7" stroke="#fcd34d" stroke-width="1"/>
  <text x="278" y="189" text-anchor="middle" font-size="11" font-weight="600" fill="#f59e0b">Auto Fact Extraction</text>

  <text x="200" y="226" text-anchor="middle" font-size="10" fill="#94a3b8">Cross-session memory recall via vector search</text>
  <text x="200" y="240" text-anchor="middle" font-size="10" fill="#94a3b8">Qwen API: text-embedding-v4</text>

  <!-- MemoryAgent → Orchestrator arrow -->
  <line x1="370" y1="182" x2="440" y2="182" stroke="#94a3b8" stroke-width="1.5" stroke-dasharray="5,3"/>
  <polygon points="438,177 448,182 438,187" fill="#94a3b8"/>

  <!-- Layer 2: Agent Society -->
  <rect x="440" y="72" width="340" height="320" rx="10" fill="white" stroke="#e2e8f0" stroke-width="1.5"/>
  <rect x="440" y="72" width="340" height="32" rx="10" fill="url(#pinkGrad)"/>
  <rect x="440" y="94" width="340" height="10" fill="url(#pinkGrad)"/>
  <text x="610" y="93" text-anchor="middle" font-size="13" font-weight="700" fill="white">🤖 Agent Society Layer</text>

  <!-- Orchestrator (big box at top) -->
  <rect x="458" y="116" width="304" height="42" rx="8" fill="#fdf2f8" stroke="#f9a8d4" stroke-width="1.5"/>
  <text x="610" y="134" text-anchor="middle" font-size="13" font-weight="700" fill="#db2777">🧠 OrchestratorAgent</text>
  <text x="610" y="149" text-anchor="middle" font-size="9" fill="#9d174d">Tool calling · Memory recall · Streaming · Workflow detection</text>

  <!-- Sub-agents row -->
  <rect x="458" y="170" width="140" height="36" rx="6" fill="#fff7ed" stroke="#fdba74" stroke-width="1"/>
  <text x="528" y="193" text-anchor="middle" font-size="11" font-weight="600" fill="#ea580c">🔍 TriageAgent</text>

  <rect x="612" y="170" width="150" height="36" rx="6" fill="#fef2f2" stroke="#fca5a5" stroke-width="1"/>
  <text x="687" y="193" text-anchor="middle" font-size="11" font-weight="600" fill="#dc2626">🔧 ResolverAgent</text>

  <rect x="458" y="216" width="140" height="36" rx="6" fill="#f5f3ff" stroke="#c4b5fd" stroke-width="1"/>
  <text x="528" y="239" text-anchor="middle" font-size="11" font-weight="600" fill="#7c3aed">✍️ WriterAgent</text>

  <rect x="612" y="216" width="150" height="36" rx="6" fill="#ecfdf5" stroke="#6ee7b7" stroke-width="1"/>
  <text x="687" y="239" text-anchor="middle" font-size="11" font-weight="600" fill="#059669">✅ QualityAgent</text>

  <!-- Tools row -->
  <rect x="458" y="268" width="90" height="30" rx="4" fill="#f1f5f9" stroke="#cbd5e1" stroke-width="1"/>
  <text x="503" y="287" text-anchor="middle" font-size="9" fill="#475569">search_web</text>
  <rect x="556" y="268" width="90" height="30" rx="4" fill="#f1f5f9" stroke="#cbd5e1" stroke-width="1"/>
  <text x="601" y="287" text-anchor="middle" font-size="9" fill="#475569">browse_page</text>
  <rect x="654" y="268" width="90" height="30" rx="4" fill="#f1f5f9" stroke="#cbd5e1" stroke-width="1"/>
  <text x="699" y="287" text-anchor="middle" font-size="9" fill="#475569">create_pdf</text>

  <rect x="458" y="304" width="90" height="30" rx="4" fill="#f1f5f9" stroke="#cbd5e1" stroke-width="1"/>
  <text x="503" y="323" text-anchor="middle" font-size="9" fill="#475569">store_memory</text>
  <rect x="556" y="304" width="90" height="30" rx="4" fill="#f1f5f9" stroke="#cbd5e1" stroke-width="1"/>
  <text x="601" y="323" text-anchor="middle" font-size="9" fill="#475569">recall_memories</text>
  <rect x="654" y="304" width="90" height="30" rx="4" fill="#f1f5f9" stroke="#cbd5e1" stroke-width="1"/>
  <text x="699" y="323" text-anchor="middle" font-size="9" fill="#475569">create_file</text>

  <text x="610" y="352" text-anchor="middle" font-size="9" fill="#94a3b8">8 function tools · Qwen function calling</text>

  <!-- Orchestrator → Sub-agents arrows -->
  <line x1="528" y1="158" x2="528" y2="168" stroke="#cbd5e1" stroke-width="1"/>
  <line x1="687" y1="158" x2="687" y2="168" stroke="#cbd5e1" stroke-width="1"/>

  <!-- Agent Society → Workflow arrow -->
  <line x1="780" y1="232" x2="840" y2="232" stroke="#94a3b8" stroke-width="1.5"/>
  <polygon points="838,227 848,232 838,237" fill="#94a3b8"/>

  <!-- Layer 3: Autopilot -->
  <rect x="840" y="72" width="330" height="320" rx="10" fill="white" stroke="#e2e8f0" stroke-width="1.5"/>
  <rect x="840" y="72" width="330" height="32" rx="10" fill="url(#greenGrad)"/>
  <rect x="840" y="94" width="330" height="10" fill="url(#greenGrad)"/>
  <text x="1005" y="93" text-anchor="middle" font-size="13" font-weight="700" fill="white">⚙️ Autopilot Layer</text>

  <!-- Workflow Engine box -->
  <rect x="858" y="116" width="294" height="48" rx="8" fill="#ecfdf5" stroke="#6ee7b7" stroke-width="1.5"/>
  <text x="1005" y="136" text-anchor="middle" font-size="13" font-weight="700" fill="#059669">⚙️ WorkflowEngine</text>
  <text x="1005" y="150" text-anchor="middle" font-size="9" fill="#047857">State machine · Step execution · SSE streaming</text>

  <!-- Support workflow -->
  <rect x="858" y="178" width="294" height="100" rx="6" fill="#f8fafc" stroke="#e2e8f0" stroke-width="1"/>
  <text x="1005" y="195" text-anchor="middle" font-size="10" font-weight="600" fill="#475569">Support Workflow</text>
  <rect x="868" y="204" width="40" height="22" rx="4" fill="#dbeafe"/>
  <text x="888" y="219" text-anchor="middle" font-size="8" fill="#3b82f6">Triage</text>
  <text x="912" y="219" text-anchor="middle" font-size="10" fill="#94a3b8">→</text>
  <rect x="920" y="204" width="44" height="22" rx="4" fill="#dbeafe"/>
  <text x="942" y="219" text-anchor="middle" font-size="8" fill="#3b82f6">Resolve</text>
  <text x="968" y="219" text-anchor="middle" font-size="10" fill="#94a3b8">→</text>
  <rect x="976" y="204" width="44" height="22" rx="4" fill="#dbeafe"/>
  <text x="998" y="219" text-anchor="middle" font-size="8" fill="#3b82f6">Draft</text>
  <text x="1024" y="219" text-anchor="middle" font-size="10" fill="#94a3b8">→</text>
  <rect x="1032" y="204" width="44" height="22" rx="4" fill="#dbeafe"/>
  <text x="1054" y="219" text-anchor="middle" font-size="8" fill="#3b82f6">Quality</text>

  <text x="1005" y="244" text-anchor="middle" font-size="10" fill="#94a3b8">↓</text>
  <rect x="938" y="252" width="134" height="22" rx="4" fill="#fef3c7" stroke="#fcd34d" stroke-width="1"/>
  <text x="1005" y="267" text-anchor="middle" font-size="9" font-weight="600" fill="#d97706">🙏 Human Approval</text>

  <!-- Refund workflow -->
  <rect x="858" y="286" width="294" height="44" rx="6" fill="#f8fafc" stroke="#e2e8f0" stroke-width="1"/>
  <text x="1005" y="301" text-anchor="middle" font-size="10" font-weight="600" fill="#475569">Refund Workflow</text>
  <rect x="868" y="308" width="36" height="18" rx="3" fill="#fce7f3"/>
  <text x="886" y="320" text-anchor="middle" font-size="7" fill="#db2777">Verify</text>
  <text x="906" y="320" text-anchor="middle" font-size="8" fill="#94a3b8">→</text>
  <rect x="912" y="308" width="36" height="18" rx="3" fill="#fce7f3"/>
  <text x="930" y="320" text-anchor="middle" font-size="7" fill="#db2777">Policy</text>
  <text x="950" y="320" text-anchor="middle" font-size="8" fill="#94a3b8">→</text>
  <rect x="956" y="308" width="44" height="18" rx="3" fill="#fce7f3"/>
  <text x="978" y="320" text-anchor="middle" font-size="7" fill="#db2777">Refund$</text>
  <text x="1002" y="320" text-anchor="middle" font-size="8" fill="#94a3b8">→</text>
  <rect x="1008" y="308" width="44" height="18" rx="3" fill="#fef3c7"/>
  <text x="1030" y="320" text-anchor="middle" font-size="7" fill="#d97706">Approve</text>
  <text x="1054" y="320" text-anchor="middle" font-size="8" fill="#94a3b8">→</text>
  <rect x="1060" y="308" width="44" height="18" rx="3" fill="#fce7f3"/>
  <text x="1082" y="320" text-anchor="middle" font-size="7" fill="#db2777">Notify</text>

  <!-- Frontend section -->
  <rect x="30" y="310" width="395" height="180" rx="10" fill="white" stroke="#e2e8f0" stroke-width="1.5"/>
  <rect x="30" y="310" width="395" height="32" rx="10" fill="url(#amberGrad)"/>
  <rect x="30" y="332" width="395" height="10" fill="url(#amberGrad)"/>
  <text x="227" y="331" text-anchor="middle" font-size="13" font-weight="700" fill="white">🖥️ Frontend (React + Tailwind)</text>

  <rect x="48" y="356" width="100" height="36" rx="6" fill="#fef3c7" stroke="#fcd34d" stroke-width="1"/>
  <text x="98" y="379" text-anchor="middle" font-size="10" font-weight="600" fill="#d97706">Chat Area</text>

  <rect x="162" y="356" width="100" height="36" rx="6" fill="#fef3c7" stroke="#fcd34d" stroke-width="1"/>
  <text x="212" y="379" text-anchor="middle" font-size="10" font-weight="600" fill="#d97706">Sidebar</text>

  <rect x="276" y="356" width="100" height="36" rx="6" fill="#fef3c7" stroke="#fcd34d" stroke-width="1"/>
  <text x="326" y="379" text-anchor="middle" font-size="10" font-weight="600" fill="#d97706">InputBar</text>

  <rect x="48" y="402" width="100" height="36" rx="6" fill="#fef3c7" stroke="#fcd34d" stroke-width="1"/>
  <text x="98" y="425" text-anchor="middle" font-size="10" font-weight="600" fill="#d97706">Notes Panel</text>

  <rect x="162" y="402" width="100" height="36" rx="6" fill="#fef3c7" stroke="#fcd34d" stroke-width="1"/>
  <text x="212" y="425" text-anchor="middle" font-size="10" font-weight="600" fill="#d97706">Voice Overlay</text>

  <rect x="276" y="402" width="100" height="36" rx="6" fill="#fef3c7" stroke="#fcd34d" stroke-width="1"/>
  <text x="326" y="425" text-anchor="middle" font-size="10" font-weight="600" fill="#d97706">Workflow UI</text>

  <text x="227" y="455" text-anchor="middle" font-size="9" fill="#94a3b8">Web Speech API (mic) · SSE streaming · TypeScript</text>
  <text x="227" y="468" text-anchor="middle" font-size="9" fill="#94a3b8">Vite dev server · Proxy to FastAPI :8000</text>

  <!-- Frontend → Backend arrow -->
  <line x1="227" y1="490" x2="227" y2="510" stroke="#94a3b8" stroke-width="1.5"/>
  <line x1="227" y1="510" x2="480" y2="510" stroke="#94a3b8" stroke-width="1.5"/>
  <line x1="480" y1="510" x2="480" y2="400" stroke="#94a3b8" stroke-width="1.5"/>
  <polygon points="475,402 480,392 485,402" fill="#94a3b8"/>
  <text x="370" y="505" text-anchor="middle" font-size="9" fill="#94a3b8">HTTP / SSE Stream</text>

  <!-- Backend box -->
  <rect x="440" y="420" width="350" height="100" rx="10" fill="white" stroke="#e2e8f0" stroke-width="1.5"/>
  <rect x="440" y="420" width="350" height="32" rx="10" fill="#475569"/>
  <rect x="440" y="442" width="350" height="10" fill="#475569"/>
  <text x="615" y="441" text-anchor="middle" font-size="13" font-weight="700" fill="white">⚡ Backend (FastAPI)</text>

  <rect x="458" y="466" width="100" height="36" rx="6" fill="#f1f5f9" stroke="#cbd5e1" stroke-width="1"/>
  <text x="508" y="489" text-anchor="middle" font-size="10" fill="#475569">/chat/stream</text>

  <rect x="570" y="466" width="100" height="36" rx="6" fill="#f1f5f9" stroke="#cbd5e1" stroke-width="1"/>
  <text x="620" y="489" text-anchor="middle" font-size="10" fill="#475569">/workflow/*</text>

  <rect x="682" y="466" width="90" height="36" rx="6" fill="#f1f5f9" stroke="#cbd5e1" stroke-width="1"/>
  <text x="727" y="489" text-anchor="middle" font-size="10" fill="#475569">Qwen API</text>

  <!-- Qwen API box -->
  <rect x="840" y="420" width="200" height="52" rx="10" fill="white" stroke="#d8b4fe" stroke-width="2"/>
  <text x="940" y="442" text-anchor="middle" font-size="11" font-weight="700" fill="#7c3aed">☁️ Qwen Cloud API</text>
  <text x="940" y="458" text-anchor="middle" font-size="9" fill="#a78bfa">dashscope-intl.aliyuncs.com</text>
  <line x1="790" y1="483" x2="838" y2="460" stroke="#cbd5e1" stroke-width="1.5" stroke-dasharray="5,3"/>
  <polygon points="836,455 842,462 834,465" fill="#cbd5e1"/>

  <!-- Database box -->
  <rect x="840" y="488" width="200" height="32" rx="6" fill="#f1f5f9" stroke="#cbd5e1" stroke-width="1"/>
  <text x="940" y="508" text-anchor="middle" font-size="10" fill="#475569">🗄️ SQLite (memory.db)</text>
  <line x1="610" y1="502" x2="838" y2="508" stroke="#cbd5e1" stroke-width="1" stroke-dasharray="4,2"/>

  <!-- Legend -->
  <rect x="440" y="540" width="730" height="50" rx="8" fill="#f8fafc" stroke="#e2e8f0" stroke-width="1"/>
  <text x="460" y="558" font-size="10" font-weight="600" fill="#475569">Legend:</text>
  <line x1="510" y1="554" x2="540" y2="554" stroke="#3b82f6" stroke-width="3"/>
  <text x="545" y="558" font-size="10" fill="#64748b">MemoryAgent</text>
  <line x1="620" y1="554" x2="650" y2="554" stroke="#ec4899" stroke-width="3"/>
  <text x="655" y="558" font-size="10" fill="#64748b">Agent Society</text>
  <line x1="735" y1="554" x2="765" y2="554" stroke="#10b981" stroke-width="3"/>
  <text x="770" y="558" font-size="10" fill="#64748b">Autopilot</text>
  <line x1="845" y1="554" x2="875" y2="554" stroke="#f59e0b" stroke-width="3"/>
  <text x="880" y="558" font-size="10" fill="#64748b">Frontend</text>
  <line x1="955" y1="554" x2="985" y2="554" stroke="#475569" stroke-width="3"/>
  <text x="990" y="558" font-size="10" fill="#64748b">Backend</text>
  <line x1="1065" y1="554" x2="1095" y2="554" stroke="#a78bfa" stroke-width="3"/>
  <text x="1100" y="558" font-size="10" fill="#64748b">Qwen Cloud</text>

  <text x="600" y="580" text-anchor="middle" font-size="9" fill="#cbd5e1">Qwen Cloud Hackathon 2026 · Alibaba Cloud Model Studio</text>
</svg>
