<svg xmlns="http://www.w3.org/2000/svg" viewBox="0 0 1200 850" font-family="system-ui, -apple-system, sans-serif">
  <defs>
    <linearGradient id="pinkGrad" x1="0" y1="0" x2="1" y2="1">
      <stop offset="0%" stop-color="#ec4899"/>
      <stop offset="100%" stop-color="#8b5cf6"/>
    </linearGradient>
    <linearGradient id="blueGrad" x1="0" y1="0" x2="1" y2="1">
      <stop offset="0%" stop-color="#3b82f6"/>
      <stop offset="100%" stop-color="#6366f1"/>
    </linearGradient>
    <linearGradient id="greenGrad" x1="0" y1="0" x2="1" y2="1">
      <stop offset="0%" stop-color="#10b981"/>
      <stop offset="100%" stop-color="#059669"/>
    </linearGradient>
    <linearGradient id="amberGrad" x1="0" y1="0" x2="1" y2="1">
      <stop offset="0%" stop-color="#f59e0b"/>
      <stop offset="100%" stop-color="#d97706"/>
    </linearGradient>
  </defs>

  <rect width="1200" height="850" fill="#f8fafc" rx="12"/>

  <text x="600" y="38" text-anchor="middle" font-size="20" font-weight="700" fill="#1e293b">QwenMind — Architecture</text>
  <text x="600" y="56" text-anchor="middle" font-size="11" fill="#94a3b8">MemoryAgent · Omni Voice · Image/Video Gen · Workflows</text>

  <!-- Layer 1: Frontend -->
  <rect x="30" y="72" width="395" height="190" rx="10" fill="white" stroke="#e2e8f0" stroke-width="1.5"/>
  <rect x="30" y="72" width="395" height="32" rx="10" fill="url(#amberGrad)"/>
  <rect x="30" y="94" width="395" height="10" fill="url(#amberGrad)"/>
  <text x="227" y="93" text-anchor="middle" font-size="13" font-weight="700" fill="white">🖥️ Frontend (React + TypeScript + Tailwind)</text>

  <rect x="48" y="118" width="110" height="34" rx="6" fill="#fef3c7" stroke="#fcd34d" stroke-width="1"/>
  <text x="103" y="139" text-anchor="middle" font-size="10" font-weight="600" fill="#d97706">ChatArea</text>

  <rect x="170" y="118" width="110" height="34" rx="6" fill="#fef3c7" stroke="#fcd34d" stroke-width="1"/>
  <text x="225" y="139" text-anchor="middle" font-size="10" font-weight="600" fill="#d97706">InputBar</text>

  <rect x="292" y="118" width="110" height="34" rx="6" fill="#fef3c7" stroke="#fcd34d" stroke-width="1"/>
  <text x="347" y="139" text-anchor="middle" font-size="10" font-weight="600" fill="#d97706">Voice Overlay</text>

  <rect x="48" y="162" width="160" height="34" rx="6" fill="#fef3c7" stroke="#fcd34d" stroke-width="1"/>
  <text x="128" y="183" text-anchor="middle" font-size="10" font-weight="600" fill="#d97706">ImageDisplay</text>

  <rect x="220" y="162" width="182" height="34" rx="6" fill="#fef3c7" stroke="#fcd34d" stroke-width="1"/>
  <text x="311" y="183" text-anchor="middle" font-size="10" font-weight="600" fill="#d97706">Workflow/Notes Panel</text>

  <text x="227" y="218" text-anchor="middle" font-size="9" fill="#94a3b8">SSE streaming · WebSocket (Omni voice) · AbortController interruptions</text>
  <text x="227" y="232" text-anchor="middle" font-size="9" fill="#94a3b8">Drag-and-drop file upload · Attachment preview above input bar</text>
  <text x="227" y="246" text-anchor="middle" font-size="9" fill="#94a3b8">Token tracker · Keypoint cards · Image shimmer · Video polling</text>

  <!-- Frontend → Backend arrow -->
  <line x1="227" y1="262" x2="227" y2="290" stroke="#94a3b8" stroke-width="1.5"/>
  <line x1="227" y1="290" x2="460" y2="290" stroke="#94a3b8" stroke-width="1.5"/>
  <line x1="460" y1="290" x2="460" y2="115" stroke="#94a3b8" stroke-width="1.5"/>
  <polygon points="455,117 460,107 465,117" fill="#94a3b8"/>
  <text x="360" y="286" text-anchor="middle" font-size="9" fill="#94a3b8">POST /chat/stream (SSE) · WS /ws/omni</text>

  <!-- Layer 2: Orchestrator -->
  <rect x="460" y="72" width="340" height="280" rx="10" fill="white" stroke="#e2e8f0" stroke-width="1.5"/>
  <rect x="460" y="72" width="340" height="32" rx="10" fill="url(#pinkGrad)"/>
  <rect x="460" y="94" width="340" height="10" fill="url(#pinkGrad)"/>
  <text x="630" y="93" text-anchor="middle" font-size="13" font-weight="700" fill="white">🧠 Orchestrator Agent</text>

  <rect x="478" y="116" width="304" height="44" rx="8" fill="#fdf2f8" stroke="#f9a8d4" stroke-width="1.5"/>
  <text x="630" y="134" text-anchor="middle" font-size="12" font-weight="700" fill="#db2777">qwen3.5-omni-plus</text>
  <text x="630" y="150" text-anchor="middle" font-size="9" fill="#9d174d">Tool calling · Streaming · Memory injection · Workflow detection</text>

  <!-- Tools grid -->
  <text x="630" y="180" text-anchor="middle" font-size="10" font-weight="600" fill="#475569">11 Function Tools</text>

  <rect x="478" y="190" width="72" height="24" rx="4" fill="#f1f5f9" stroke="#cbd5e1" stroke-width="1"/>
  <text x="514" y="206" text-anchor="middle" font-size="8" fill="#475569">search_web</text>
  <rect x="556" y="190" width="72" height="24" rx="4" fill="#f1f5f9" stroke="#cbd5e1" stroke-width="1"/>
  <text x="592" y="206" text-anchor="middle" font-size="8" fill="#475569">browse_page</text>
  <rect x="634" y="190" width="72" height="24" rx="4" fill="#f1f5f9" stroke="#cbd5e1" stroke-width="1"/>
  <text x="670" y="206" text-anchor="middle" font-size="8" fill="#475569">store_memory</text>
  <rect x="712" y="190" width="72" height="24" rx="4" fill="#f1f5f9" stroke="#cbd5e1" stroke-width="1"/>
  <text x="748" y="206" text-anchor="middle" font-size="8" fill="#475569">recall_mem</text>

  <rect x="478" y="218" width="72" height="24" rx="4" fill="#f1f5f9" stroke="#cbd5e1" stroke-width="1"/>
  <text x="514" y="234" text-anchor="middle" font-size="8" fill="#475569">gen_image</text>
  <rect x="556" y="218" width="72" height="24" rx="4" fill="#f1f5f9" stroke="#cbd5e1" stroke-width="1"/>
  <text x="592" y="234" text-anchor="middle" font-size="8" fill="#475569">gen_video</text>
  <rect x="634" y="218" width="72" height="24" rx="4" fill="#f1f5f9" stroke="#cbd5e1" stroke-width="1"/>
  <text x="670" y="234" text-anchor="middle" font-size="8" fill="#475569">extract_pdf</text>
  <rect x="712" y="218" width="72" height="24" rx="4" fill="#f1f5f9" stroke="#cbd5e1" stroke-width="1"/>
  <text x="748" y="234" text-anchor="middle" font-size="8" fill="#475569">create_pdf</text>

  <rect x="478" y="246" width="72" height="24" rx="4" fill="#f1f5f9" stroke="#cbd5e1" stroke-width="1"/>
  <text x="514" y="262" text-anchor="middle" font-size="8" fill="#475569">read_file</text>
  <rect x="556" y="246" width="72" height="24" rx="4" fill="#f1f5f9" stroke="#cbd5e1" stroke-width="1"/>
  <text x="592" y="262" text-anchor="middle" font-size="8" fill="#475569">create_file</text>

  <!-- Context box -->
  <rect x="478" y="282" width="304" height="44" rx="6" fill="#eff6ff" stroke="#93c5fd" stroke-width="1"/>
  <text x="630" y="300" text-anchor="middle" font-size="10" font-weight="600" fill="#3b82f6">Context Injection</text>
  <text x="630" y="314" text-anchor="middle" font-size="8" fill="#60a5fa">Last 8 history messages · Recalled memories · Extracted facts</text>

  <!-- Orchestrator → Memory arrow -->
  <line x1="460" y1="212" x2="440" y2="212" stroke="#94a3b8" stroke-width="1"/>

  <!-- Layer 3: Memory -->
  <rect x="30" y="310" width="395" height="140" rx="10" fill="white" stroke="#e2e8f0" stroke-width="1.5"/>
  <rect x="30" y="310" width="395" height="32" rx="10" fill="url(#blueGrad)"/>
  <rect x="30" y="332" width="395" height="10" fill="url(#blueGrad)"/>
  <text x="227" y="331" text-anchor="middle" font-size="13" font-weight="700" fill="white">🧠 Memory Layer</text>

  <rect x="48" y="356" width="110" height="36" rx="6" fill="#eff6ff" stroke="#93c5fd" stroke-width="1"/>
  <text x="103" y="379" text-anchor="middle" font-size="10" font-weight="600" fill="#3b82f6">text-embedding-v4</text>

  <rect x="170" y="356" width="110" height="36" rx="6" fill="#ecfdf5" stroke="#6ee7b7" stroke-width="1"/>
  <text x="225" y="379" text-anchor="middle" font-size="10" font-weight="600" fill="#10b981">Cosine Similarity</text>

  <rect x="292" y="356" width="110" height="36" rx="6" fill="#fef3c7" stroke="#fcd34d" stroke-width="1"/>
  <text x="347" y="379" text-anchor="middle" font-size="10" font-weight="600" fill="#d97706">Fact Extraction</text>

  <text x="227" y="418" text-anchor="middle" font-size="9" fill="#94a3b8">SQLite storage · 1536-dim vectors · Cross-session recall</text>
  <text x="227" y="432" text-anchor="middle" font-size="9" fill="#94a3b8">Automatic extraction on every conversation</text>

  <!-- Memory → Orchestrator arrow -->
  <line x1="425" y1="380" x2="458" y2="300" stroke="#94a3b8" stroke-width="1.5" stroke-dasharray="5,3"/>
  <polygon points="456,302 460,292 464,302" fill="#94a3b8"/>

  <!-- Layer 4: Voice -->
  <rect x="30" y="468" width="180" height="120" rx="10" fill="white" stroke="#e2e8f0" stroke-width="1.5"/>
  <rect x="30" y="468" width="180" height="32" rx="10" fill="#475569"/>
  <rect x="30" y="490" width="180" height="10" fill="#475569"/>
  <text x="120" y="489" text-anchor="middle" font-size="11" font-weight="700" fill="white">🎤 Omni Voice</text>

  <text x="120" y="515" text-anchor="middle" font-size="9" fill="#64748b">WebSocket proxy</text>
  <text x="120" y="530" text-anchor="middle" font-size="9" fill="#64748b">Server VAD</text>
  <text x="120" y="545" text-anchor="middle" font-size="9" fill="#64748b">whisper-1 STT</text>
  <text x="120" y="560" text-anchor="middle" font-size="9" fill="#64748b">PCM audio</text>
  <text x="120" y="575" text-anchor="middle" font-size="9" fill="#64748b">Keypoint cards on end</text>

  <!-- Layer 5: Workflow Engine -->
  <rect x="460" y="380" width="340" height="130" rx="10" fill="white" stroke="#e2e8f0" stroke-width="1.5"/>
  <rect x="460" y="380" width="340" height="32" rx="10" fill="url(#greenGrad)"/>
  <rect x="460" y="402" width="340" height="10" fill="url(#greenGrad)"/>
  <text x="630" y="401" text-anchor="middle" font-size="11" font-weight="700" fill="white">⚙️ Workflow Engine</text>

  <rect x="478" y="422" width="304" height="28" rx="4" fill="#f8fafc" stroke="#e2e8f0" stroke-width="1"/>
  <text x="630" y="441" text-anchor="middle" font-size="9" fill="#475569">Support: Triage → Resolve → Draft → Quality → Approve → Send</text>

  <rect x="478" y="454" width="304" height="28" rx="4" fill="#f8fafc" stroke="#e2e8f0" stroke-width="1"/>
  <text x="630" y="473" text-anchor="middle" font-size="9" fill="#475569">Refund: Verify → Policy → Calculate → Approve → Process → Notify</text>

  <rect x="478" y="486" width="304" height="18" rx="4" fill="#fef3c7" stroke="#fcd34d" stroke-width="1"/>
  <text x="630" y="499" text-anchor="middle" font-size="8" font-weight="600" fill="#d97706">Human-in-the-loop: Approve/Reject buttons</text>

  <!-- Qwen Cloud API box -->
  <rect x="840" y="72" width="330" height="200" rx="10" fill="white" stroke="#d8b4fe" stroke-width="2"/>
  <rect x="840" y="72" width="330" height="32" rx="10" fill="#7c3aed"/>
  <rect x="840" y="94" width="330" height="10" fill="#7c3aed"/>
  <text x="1005" y="93" text-anchor="middle" font-size="13" font-weight="700" fill="white">☁️ Qwen Cloud API</text>

  <rect x="858" y="116" width="294" height="28" rx="6" fill="#f5f3ff" stroke="#c4b5fd" stroke-width="1"/>
  <text x="1005" y="135" text-anchor="middle" font-size="10" font-weight="600" fill="#7c3aed">qwen3.5-omni-plus (Chat + Vision)</text>

  <rect x="858" y="150" width="294" height="28" rx="6" fill="#f5f3ff" stroke="#c4b5fd" stroke-width="1"/>
  <text x="1005" y="169" text-anchor="middle" font-size="10" font-weight="600" fill="#7c3aed">qwen3.5-omni-plus-realtime (Omni Voice)</text>

  <rect x="858" y="184" width="294" height="28" rx="6" fill="#f5f3ff" stroke="#c4b5fd" stroke-width="1"/>
  <text x="1005" y="203" text-anchor="middle" font-size="10" font-weight="600" fill="#7c3aed">qwen-image-2.0-pro (Image Gen)</text>

  <rect x="858" y="218" width="294" height="28" rx="6" fill="#f5f3ff" stroke="#c4b5fd" stroke-width="1"/>
  <text x="1005" y="237" text-anchor="middle" font-size="10" font-weight="600" fill="#7c3aed">wan2.7-t2v (Video Gen)</text>

  <rect x="858" y="252" width="294" height="18" rx="4" fill="#f1f5f9" stroke="#cbd5e1" stroke-width="1"/>
  <text x="1005" y="264" text-anchor="middle" font-size="8" fill="#64748b">text-embedding-v4 (Vector embeddings)</text>

  <!-- Orchestrator → Qwen API arrow -->
  <line x1="800" y1="212" x2="838" y2="212" stroke="#94a3b8" stroke-width="1.5"/>
  <polygon points="836,207 846,212 836,217" fill="#94a3b8"/>
  <text x="825" y="205" text-anchor="middle" font-size="8" fill="#94a3b8">OpenAI SDK</text>

  <!-- Voice → Qwen API arrow -->
  <line x1="210" y1="528" x2="260" y2="528" stroke="#94a3b8" stroke-width="1.5" stroke-dasharray="4,2"/>
  <line x1="260" y1="528" x2="260" y2="170" stroke="#94a3b8" stroke-width="1.5" stroke-dasharray="4,2"/>
  <line x1="260" y1="170" x2="838" y2="170" stroke="#94a3b8" stroke-width="1.5" stroke-dasharray="4,2"/>
  <polygon points="836,165 846,170 836,175" fill="#94a3b8"/>
  <text x="280" y="175" text-anchor="middle" font-size="7" fill="#94a3b8">WebSocket</text>

  <!-- Workflow → Qwen API arrow -->
  <line x1="800" y1="445" x2="838" y2="445" stroke="#94a3b8" stroke-width="1" stroke-dasharray="4,2"/>
  <polygon points="836,440 846,445 836,450" fill="#94a3b8"/>

  <!-- File upload -->
  <rect x="245" y="468" width="180" height="120" rx="10" fill="white" stroke="#e2e8f0" stroke-width="1.5"/>
  <rect x="245" y="468" width="180" height="32" rx="10" fill="#475569"/>
  <rect x="245" y="490" width="180" height="10" fill="#475569"/>
  <text x="335" y="489" text-anchor="middle" font-size="11" font-weight="700" fill="white">📎 File Upload</text>

  <text x="335" y="515" text-anchor="middle" font-size="9" fill="#64748b">PDF → pypdf text extraction</text>
  <text x="335" y="530" text-anchor="middle" font-size="9" fill="#64748b">Image → Multimodal vision</text>
  <text x="335" y="545" text-anchor="middle" font-size="9" fill="#64748b">Attachment preview above input</text>
  <text x="335" y="560" text-anchor="middle" font-size="9" fill="#64748b">Sent with user's message text</text>
  <text x="335" y="575" text-anchor="middle" font-size="9" fill="#64748b">Drag-and-drop or 📎 button</text>

  <!-- Legend -->
  <rect x="840" y="290" width="330" height="60" rx="8" fill="#f8fafc" stroke="#e2e8f0" stroke-width="1"/>
  <text x="860" y="310" font-size="10" font-weight="600" fill="#475569">Legend:</text>
  <rect x="920" y="298" width="14" height="14" rx="3" fill="url(#pinkGrad)"/>
  <text x="940" y="310" font-size="10" fill="#64748b">Orchestrator</text>
  <rect x="1020" y="298" width="14" height="14" rx="3" fill="url(#blueGrad)"/>
  <text x="1040" y="310" font-size="10" fill="#64748b">Memory</text>
  <rect x="920" y="320" width="14" height="14" rx="3" fill="url(#greenGrad)"/>
  <text x="940" y="332" font-size="10" fill="#64748b">Workflow</text>
  <rect x="1020" y="320" width="14" height="14" rx="3" fill="url(#amberGrad)"/>
  <text x="1040" y="332" font-size="10" fill="#64748b">Frontend</text>

  <text x="600" y="630" text-anchor="middle" font-size="9" fill="#cbd5e1">Qwen Cloud Hackathon 2026 · Alibaba Cloud Model Studio</text>
</svg>
